<svg version="1.2" xmlns="http://www.w3.org/2000/svg" viewBox="0 0 91 36" width="91" height="36"><style>.a{fill:#5a31f4}</style><path fill-rule="evenodd" class="a" d="m64.9 19c0 6.7-4.9 11.7-11.7 11.9h-0.6c-5.7-0.1-10.1-4.1-10.2-9.4-0.2-4.1 2.2-6.3 4.2-7.5q0-0.1 0.1-0.1c0.3 0 0.5 0.1 0.6 0.3l1.7 3.3q0 0 0 0c0.2 0.3 0.1 0.5-0.1 0.6-1.3 1-1.9 2-1.9 3.4 0 2.7 2.4 4.5 5.9 4.5 4.2 0 6.9-2.8 6.9-7.3 0-2.4-0.9-4.7-2.5-6.1-1.4-1.3-3.3-1.9-5.5-1.7-4 0.3-5.5 1.6-6.6 2.4l-0.1 0.2q-0.1 0-0.2 0c-0.2 0.1-0.5 0-0.6-0.2l-2-3.5c-0.2-0.2-0.1-0.5 0.1-0.7h0.1c1.9-1.4 4.4-3 9.4-3 8.4 0 13 6.6 13 12.9zm8.2-8.5c1.5-1.7 3.7-3.2 6.4-3.2 6 0 10.7 4.9 10.7 11 0 6.4-4.8 11.1-10.5 11.1-3 0-5.3-1.6-6.1-2.8h-0.1c0 0 0 9.3 0 9.3 0 0.1-0.1 0.2-0.3 0.2h-5.3q0 0-0.1 0c-0.1 0-0.1-0.1-0.1-0.2 0 0 0-28.5 0-28.5 0-0.1 0.1-0.2 0.2-0.2 0 0 5 0 5 0 0.1 0.1 0.2 0.2 0.2 0.2v3zm11.4 7.8c0-3.2-2.5-5.7-5.6-5.7-3 0-5.5 2.5-5.5 5.7 0 3.1 2.5 5.6 5.5 5.6 3.1 0 5.6-2.5 5.6-5.6zm-66.9 4.4c0 3.2-2.8 6.6-8.9 6.6-4.1 0-8.5-2.4-8.7-7q0 0 0-0.1c0-0.1 0.1-0.1 0.2-0.1h5q0 0 0 0c0.1 0 0.2 0 0.2 0.2 0.1 1.4 1.7 2.2 3.9 2.2 1.4 0 3-0.7 3-1.8 0-0.9-0.7-1.5-2.1-1.8-1.1-0.3-2.5-0.7-3.4-1-5.5-1.6-6.2-3.9-6.2-6.3 0-3.4 3.4-6.4 8-6.4 4 0 8.2 1.7 8.5 6.5q0 0 0 0c0 0.1-0.1 0.2-0.2 0.2h-5q0 0 0 0c-0.2 0-0.2-0.1-0.2-0.2-0.2-1.5-1.7-1.8-3-1.8-1.4 0-2.7 0.4-2.7 1.6 0 1.3 1.6 1.8 2.6 2 0.9 0.3 3.5 0.9 3.5 0.9 5.2 1.3 5.5 4.7 5.5 6.3zm2.7-22.6c0-0.1 0.1-0.2 0.2-0.2 0 0 5 0 5 0 0.1 0 0.2 0.1 0.2 0.2v10.1l0.1-0.1c1.3-1.8 3.4-2.8 5.6-2.9 3.5 0 5.8 1.7 7.1 4.3q0.8 1.8 1 3.8 0 0.6 0 1.3c0 0 0 12.5 0 12.5 0 0.1-0.1 0.2-0.2 0.2 0 0-5.4 0-5.4 0-0.1 0-0.2-0.1-0.1-0.2v-11.8c0-2.4-0.7-4.7-3.6-4.7-2.5 0-4.1 1.7-4.1 4.1 0 0 0 12.4 0 12.4-0.1 0.1-0.2 0.2-0.3 0.2 0 0-5.3 0-5.4 0-0.1 0-0.1-0.1-0.1-0.2v-29q0 0 0 0z"/></svg>